<?xml version="1.0" standalone="no"?>
<!DOCTYPE svg PUBLIC "-//W3C//DTD SVG 1.1//EN" "http://www.w3.org/Graphics/SVG/1.1/DTD/svg11.dtd" >
<svg>
<metadata>
Created by FontForge 20110222 at Thu Feb  5 09:34:16 2015
 By deploy user
EeveSomepx
</metadata>
<defs>
<font id="Waving" horiz-adv-x="1024" >
  <font-face 
    font-family="Waving"
    font-weight="500"
    font-stretch="normal"
    units-per-em="2048"
    panose-1="2 0 6 3 0 0 0 0 0 0"
    ascent="1536"
    descent="-512"
    x-height="896"
    cap-height="1280"
    bbox="0 -512 2048 1365"
    underline-thickness="102"
    underline-position="-206"
    unicode-range="U+000D-25FC"
  />
<missing-glyph horiz-adv-x="748" 
d="M68 0v1365h544v-1365h-544zM136 68h408v1229h-408v-1229z" />
    <glyph glyph-name=".notdef" horiz-adv-x="748" 
d="M68 0v1365h544v-1365h-544zM136 68h408v1229h-408v-1229z" />
    <glyph glyph-name="glyph1" horiz-adv-x="0" 
 />
    <glyph glyph-name="uni000D" unicode="&#xd;" horiz-adv-x="682" 
 />
    <glyph glyph-name="space" unicode=" " horiz-adv-x="640" 
 />
    <glyph glyph-name="exclam" unicode="!" horiz-adv-x="384" 
d="M0 0v128v128h128v-128h128v-128h-128h-128zM0 384v128v128v128v128v128v128v128h128h128v-128v-128v-128v-128v-128v-128v-128h-128h-128z" />
    <glyph glyph-name="quotedbl" unicode="&#x22;" horiz-adv-x="640" 
d="M0 1024v128v128h128h128h128h128v-128h-128v-128h-128v128h-128v-128h-128z" />
    <glyph glyph-name="numbersign" unicode="#" 
d="M0 128v128v128h128v128h-128v128v128h128v128h128h128v-128h128v128h128h128v-128h128v-128v-128h-128v-128h128v-128v-128h-128v-128h-128h-128v128h-128v-128h-128h-128v128h-128zM384 384h128v128h-128v-128z" />
    <glyph glyph-name="dollar" unicode="$" 
d="M0 384v128h128v-128h-128zM0 768v128v128v128v128h128h128h128h128v-128h-128v-128v-128h128v128v128h128v-128h128v-128h-128v-128v-128h128v-128h128v-128v-128v-128v-128h-128h-128h-128h-128v128h-128v128h-128v128h128v128v128h-128v128h-128zM128 0v128h128v-128
h-128zM384 128h128v128v128h-128v-128v-128zM640 1152v128h128v-128h-128zM768 768v128h128v-128h-128z" />
    <glyph glyph-name="percent" unicode="%" 
d="M0 128v128v128v128h128v128h128v128h128v128h128v128h128h128h128v-128h-128v-128h-128v-128h-128v-128h-128v-128h-128v-128h-128v-128h-128zM0 896v128h128v-128h-128zM640 256v128h128v-128h-128z" />
    <glyph glyph-name="ampersand" unicode="&#x26;" horiz-adv-x="1152" 
d="M0 0v128v128v128v128h128v128h128v128h128v128h128h128h128v-128v-128v-128v-128v-128h128v-128h128v-128h-128h-128h-128h-128h-128h-128h-128h-128zM256 256h128h128v128h-128h-128v-128zM256 512h128h128v128h-128h-128v-128zM896 256v128h128v-128h-128z" />
    <glyph glyph-name="quotesingle" unicode="'" horiz-adv-x="384" 
d="M0 1024v128v128h128h128v-128h-128v-128h-128z" />
    <glyph glyph-name="parenleft" unicode="(" horiz-adv-x="640" 
d="M0 0v128v128v128v128v128v128v128h128v128h128v128h128v-128v-128v-128v-128v-128v-128v-128v-128v-128v-128v-128h-128v128h-128v128h-128zM384 -256h128v-128h-128v128zM384 1152v128h128v-128h-128z" />
    <glyph glyph-name="parenright" unicode=")" horiz-adv-x="640" 
d="M0 -256h128v-128h-128v128zM0 1152v128h128v-128h-128zM128 0v128v128v128v128v128v128v128v128v128h128v-128h128v-128h128v-128v-128v-128v-128v-128v-128v-128h-128v-128h-128v-128h-128v128v128z" />
    <glyph glyph-name="asterisk" unicode="*" 
d="M0 128v128v128h128v128h128v128h-128v128h-128v128v128h128h128v-128h128v-128h128v128h128v128h128h128v-128v-128h-128v-128h-128v-128h128v-128h128v-128v-128h-128h-128v128h-128v128h-128v-128h-128v-128h-128h-128z" />
    <glyph glyph-name="plus" unicode="+" 
d="M0 256v128v128v128h128h128v128h128h128h128v-128h128h128v-128v-128v-128h-128h-128v-128h-128h-128h-128v128h-128h-128z" />
    <glyph glyph-name="comma" unicode="," horiz-adv-x="512" 
d="M0 -256h128v-128h-128v128zM128 0h128h128v-128h-128v-128h-128v128v128z" />
    <glyph glyph-name="hyphen" unicode="-" 
d="M0 256v128v128v128h128h128h128h128h128h128h128v-128v-128v-128h-128h-128h-128h-128h-128h-128h-128z" />
    <glyph glyph-name="period" unicode="." horiz-adv-x="384" 
d="M0 0v128v128h128v-128h128v-128h-128h-128z" />
    <glyph glyph-name="slash" unicode="/" 
d="M0 0v128v128h128v128h128v128h128v128h128v128h128v128h128h128v-128h-128v-128h-128v-128h-128v-128h-128v-128h-128v-128h-128v-128h-128z" />
    <glyph glyph-name="zero" unicode="0" 
d="M0 384v128v128v128v128v128v128v128h128h128h128h128v-128h128v-128h128v-128h128v-128v-128v-128v-128v-128v-128v-128h-128h-128h-128h-128v128h-128v128h-128v128h-128zM256 512h128v-128h128v-128h128v128v128v128v128h-128v128h-128v128h-128v-128v-128v-128v-128z
" />
    <glyph glyph-name="one" unicode="1" 
d="M0 0v128v128h128h128h128v128v128v128h-128h-128h-128v128h128v128h128v128h128v128h128v128h128v-128v-128v-128v-128v-128v-128v-128v-128h128v-128h128v-128h-128h-128h-128h-128h-128h-128h-128z" />
    <glyph glyph-name="two" unicode="2" 
d="M0 0v128v128v128v128h128v128h128v128h128v128h128v128h-128h-128h-128h-128v128v128h128h128h128h128h128h128h128v-128v-128v-128v-128h-128v-128h-128v-128h-128v-128h-128v-128h128h128h128h128v-128v-128h-128h-128h-128h-128h-128h-128h-128z" />
    <glyph glyph-name="three" unicode="3" 
d="M0 0v128v128h128h128h128v128h128v128h-128h-128h-128h-128v128v128h128h128h128v128h128v128h-128h-128h-128h-128v128v128h128h128h128h128h128h128h128v-128v-128v-128v-128v-128v-128v-128v-128v-128v-128h-128h-128h-128h-128h-128h-128h-128z" />
    <glyph glyph-name="four" unicode="4" 
d="M0 512v128v128v128v128v128v128h128h128v-128v-128v-128v-128h128v128h128v128h128v128v128h128h128v-128v-128v-128v-128v-128v-128v-128v-128v-128v-128h-128h-128v128v128v128v128h-128h-128h-128h-128h-128z" />
    <glyph glyph-name="five" unicode="5" 
d="M0 0v128v128h128h128h128h128v128h-128v128h-128v128h-128v128h-128v128v128v128v128h128h128h128h128h128h128h128v-128v-128h-128h-128h-128h-128v-128h128v-128h128v-128h128v-128h128v-128v-128v-128v-128h-128h-128h-128h-128h-128h-128h-128z" />
    <glyph glyph-name="six" unicode="6" 
d="M0 0v128v128v128v128v128v128v128v128v128v128h128h128v-128v-128v-128h128v-128h128v-128h128v-128h128v-128h128v-128v-128v-128h-128h-128h-128h-128h-128h-128h-128zM256 256h128h128v128h-128v128h-128v-128v-128z" />
    <glyph glyph-name="seven" unicode="7" 
d="M0 896v128v128v128h128h128h128h128h128h128h128v-128v-128v-128v-128v-128v-128v-128v-128v-128v-128h-128h-128v128v128v128v128h-128h-128h-128v128v128h128h128v128h128v128h-128h-128h-128v-128h-128h-128z" />
    <glyph glyph-name="eight" unicode="8" 
d="M0 0v128v128v128v128v128v128v128v128v128v128h128h128h128h128h128h128h128v-128v-128v-128v-128v-128v-128v-128v-128v-128v-128h-128h-128h-128h-128h-128h-128h-128zM256 256h128v128h128v128h-128h-128v-128v-128zM256 768h128v128h128v128h-128h-128v-128v-128z
" />
    <glyph glyph-name="nine" unicode="9" 
d="M0 896v128v128v128h128h128h128h128h128h128h128v-128v-128v-128v-128v-128v-128v-128v-128v-128v-128h-128h-128v128v128v128h-128v128h-128v128h-128v128h-128v128h-128zM384 896h128v-128h128v128v128h-128h-128v-128z" />
    <glyph glyph-name="colon" unicode=":" horiz-adv-x="384" 
d="M0 0v128v128h128v-128h128v-128h-128h-128zM0 384v128v128h128v-128h128v-128h-128h-128z" />
    <glyph glyph-name="semicolon" unicode=";" horiz-adv-x="512" 
d="M0 -256h128v-128h-128v128zM128 0h128h128v-128h-128v-128h-128v128v128zM128 384v128v128h128v-128h128v-128h-128h-128z" />
    <glyph glyph-name="less" unicode="&#x3c;" horiz-adv-x="640" 
d="M0 384v128h128v128h128v128h128v-128v-128v-128v-128v-128h-128v128h-128v128h-128zM384 0v128h128v-128h-128zM384 768v128h128v-128h-128z" />
    <glyph glyph-name="equal" unicode="=" 
d="M0 128v128v128h128h128h128h128h128h128h128v-128v-128h-128h-128h-128h-128h-128h-128h-128zM0 512v128v128h128h128h128h128h128h128h128v-128v-128h-128h-128h-128h-128h-128h-128h-128z" />
    <glyph glyph-name="greater" unicode="&#x3e;" horiz-adv-x="640" 
d="M0 0v128h128v-128h-128zM0 768v128h128v-128h-128zM128 128v128v128v128v128v128h128v-128h128v-128h128v-128h-128v-128h-128v-128h-128z" />
    <glyph glyph-name="question" unicode="?" horiz-adv-x="384" 
d="M0 0v128v128h128v-128h128v-128h-128h-128zM0 384v128v128h128v-128v-128h-128zM0 896v128v128v128h128h128v-128v-128v-128v-128v-128h-128v128v128h-128z" />
    <glyph glyph-name="at" unicode="@" horiz-adv-x="1792" 
d="M0 0v128v128v128v128v128v128v128h128v128h128v128h128v128h128h128h128h128h128h128h128h128h128h128v-128v-128v-128v-128v-128v-128v-128v-128v-128v-128v-128h-128v-128h-128h-128h-128h-128h-128h-128h-128h-128h-128h-128v128h128h128h128h128h128h128h128h128h128
v128v128v128v128v128v128v128v128v128h-128h-128h-128h-128h-128h-128h-128h-128h-128v-128v-128v-128v-128v-128v-128v-128v-128h-128h-128zM384 0v128v128v128v128h128v128h128v128h128v128h128h128h128h128v-128v-128v-128v-128v-128v-128v-128h-128h-128h-128h-128h-128
h-128h-128zM640 256h128h128h128v128v128v128h-128h-128h-128v-128v-128v-128z" />
    <glyph glyph-name="A" unicode="A" 
d="M0 0v128v128v128v128v128v128v128h128v128h128v128h128v128h128h128h128h128v-128v-128v-128v-128v-128v-128v-128v-128v-128v-128h-128h-128v128v128v128h-128h-128h-128v-128v-128v-128h-128h-128zM256 768h128h128h128v128v128h-128h-128h-128v-128v-128z" />
    <glyph glyph-name="B" unicode="B" 
d="M0 0v128v128v128v128v128v128v128v128v128v128h128h128h128h128v-128h128v-128h-128h-128h-128v-128v-128h128h128h128v128v128h128v-128h128v-128v-128v-128v-128v-128v-128v-128h-128h-128h-128h-128h-128h-128h-128zM256 256h128h128h128v128v128h-128h-128h-128v-128
v-128z" />
    <glyph glyph-name="C" unicode="C" 
d="M0 0v128v128v128v128v128v128v128h128v128h128v-128v-128v-128v-128v-128v-128h128h128h128h128h128v-128v-128h-128h-128h-128h-128h-128h-128h-128zM256 1024v128h128v128h128h128h128h128v-128v-128h-128h-128h-128h-128h-128z" />
    <glyph glyph-name="D" unicode="D" 
d="M0 0v128v128v128v128v128v128v128v128v128v128h128h128h128h128v-128h128v-128h-128h-128h-128v-128v-128v-128v-128v-128v-128h128h128h128v128v128v128v128v128v128h128v-128h128v-128v-128v-128v-128v-128v-128v-128h-128h-128h-128h-128h-128h-128h-128z" />
    <glyph glyph-name="E" unicode="E" 
d="M0 0v128v128v128v128v128v128v128h128v128h128v-128v-128h128h128h128h128h128v-128v-128h-128h-128h-128h-128h-128v-128v-128h128h128h128h128h128v-128v-128h-128h-128h-128h-128h-128h-128h-128zM256 1024v128h128v128h128h128h128h128v-128v-128h-128h-128h-128
h-128h-128z" />
    <glyph glyph-name="F" unicode="F" 
d="M0 0v128v128v128v128v128v128v128h128v128h128v-128v-128h128h128h128h128h128v-128v-128h-128h-128h-128h-128h-128v-128v-128v-128v-128h-128h-128zM256 1024v128h128v128h128h128h128h128v-128v-128h-128h-128h-128h-128h-128z" />
    <glyph glyph-name="G" unicode="G" 
d="M0 0v128v128v128v128v128v128v128h128v128h128v-128v-128v-128v-128v-128v-128h128h128h128v128v128v128v128h128h128v-128v-128v-128v-128v-128v-128h-128h-128h-128h-128h-128h-128h-128zM256 1024v128h128v128h128h128h128h128v-128v-128h-128h-128h-128h-128h-128z
" />
    <glyph glyph-name="H" unicode="H" 
d="M0 0v128v128v128v128v128v128v128v128v128v128h128h128v-128v-128v-128v-128h128h128h128v128v128h128v-128h128v-128v-128v-128v-128v-128v-128v-128h-128h-128v128v128v128v128h-128h-128h-128v-128v-128v-128v-128h-128h-128z" />
    <glyph glyph-name="I" unicode="I" horiz-adv-x="384" 
d="M0 0v128v128v128v128v128v128v128v128v128v128h128v-128h128v-128v-128v-128v-128v-128v-128v-128v-128v-128h-128h-128z" />
    <glyph glyph-name="J" unicode="J" 
d="M0 0v128v128v128v128v128v128h128h128v-128v-128v-128v-128h128h128h128v128v128v128v128v128v128v128v128h128v-128h128v-128v-128v-128v-128v-128v-128v-128v-128v-128h-128h-128h-128h-128h-128h-128h-128z" />
    <glyph glyph-name="K" unicode="K" 
d="M0 0v128v128v128v128v128v128v128v128v128v128h128v-128h128v-128v-128v-128h128h128h128v-128v-128h-128h-128h-128v-128v-128v-128v-128h-128h-128zM640 0v128v128v128v128h128h128v-128v-128v-128v-128h-128h-128zM640 768v128v128v128v128h128h128v-128v-128v-128
v-128h-128h-128z" />
    <glyph glyph-name="L" unicode="L" 
d="M0 0v128v128v128v128v128v128v128v128v128v128h128h128v-128v-128v-128v-128v-128v-128v-128v-128h128h128h128h128v-128h128v-128h-128h-128h-128h-128h-128h-128h-128z" />
    <glyph glyph-name="M" unicode="M" horiz-adv-x="1536" 
d="M0 0v128v128v128v128v128v128v128v128v128v128h128h128v-128v-128v-128h128v-128h128v128v128v128v128h128h128v-128v-128v-128h128v-128h128v-128h128v-128h128v-128h128v-128v-128v-128h-128h-128h-128v128v128v128v128h-128v128h-128v-128v-128v-128v-128v-128h-128
h-128v128v128v128v128h-128v128h-128v-128v-128v-128v-128v-128h-128h-128zM1024 768v128v128v128v128h128h128h128v-128v-128v-128v-128v-128v-128h-128v128h-128v128h-128z" />
    <glyph glyph-name="N" unicode="N" 
d="M0 0v128v128v128v128v128v128v128v128v128v128h128h128v-128v-128v-128h128v-128h128v-128h128v-128h128v-128h128v-128v-128v-128h-128h-128h-128v128v128v128v128h-128v128h-128v-128v-128v-128v-128v-128h-128h-128zM512 768v128v128v128v128h128h128h128v-128v-128
v-128v-128v-128v-128h-128v128h-128v128h-128z" />
    <glyph glyph-name="O" unicode="O" 
d="M0 0v128v128v128v128v128v128v128v128v128v128h128h128h128h128h128h128h128v-128v-128v-128v-128v-128v-128v-128v-128v-128v-128h-128h-128h-128h-128h-128h-128h-128zM256 256h128h128h128v128v128v128v128v128v128h-128h-128h-128v-128v-128v-128v-128v-128v-128z
" />
    <glyph glyph-name="P" unicode="P" 
d="M0 0v128v128v128v128v128v128v128h128v128h128v128h128v128h128h128h128h128v-128v-128v-128v-128v-128v-128h-128h-128h-128h-128h-128v-128v-128v-128v-128h-128h-128zM256 768h128h128h128v128v128h-128h-128h-128v-128v-128z" />
    <glyph glyph-name="Q" unicode="Q" 
d="M0 0v128v128v128v128v128v128v128v128v128v128h128h128h128h128h128h128h128v-128v-128v-128v-128v-128v-128v-128v-128v-128v-128h-128h-128h-128h-128h-128h-128h-128zM256 384h128v128h128v128h128v128v128v128h-128h-128h-128v-128v-128v-128v-128v-128z" />
    <glyph glyph-name="R" unicode="R" 
d="M0 0v128v128v128v128v128v128v128h128v128h128v128h128v128h128h128h128h128v-128v-128v-128v-128v-128v-128h-128h-128h-128v-128h128v-128h128v-128h128v-128h-128h-128v128h-128v128h-128v128h-128v-128v-128v-128h-128h-128zM256 768h128h128h128v128v128h-128h-128
h-128v-128v-128z" />
    <glyph glyph-name="S" unicode="S" 
d="M0 384v128h128v-128h-128zM0 768v128v128v128v128h128h128h128h128v-128h128v-128h128v-128h-128v128h-128v128h-128v-128v-128h128v-128h128v-128h128v-128h128v-128v-128v-128v-128h-128h-128h-128h-128v128h128v128v128h-128v128h-128v128h-128v128h-128zM128 256v128
h128v-128h-128zM256 128v128h128v-128h-128zM768 768v128h128v-128h-128z" />
    <glyph glyph-name="T" unicode="T" 
d="M0 0v128v128v128v128v128v128v128h128v128h128v-128v-128v-128v-128v-128v-128v-128v-128h-128h-128zM256 1024v128h128v128h128h128h128h128v-128v-128h-128h-128h-128h-128h-128z" />
    <glyph glyph-name="U" unicode="U" 
d="M0 384v128v128v128v128v128v128v128h128h128v-128v-128v-128v-128v-128v-128v-128v-128h-128v128h-128zM256 128v128h128h128h128v128v128v128v128v128v128v128v128h128h128v-128v-128v-128v-128v-128v-128v-128v-128v-128v-128h-128h-128h-128h-128v128h-128z" />
    <glyph glyph-name="V" unicode="V" 
d="M0 0v128v128v128v128v128v128v128v128v128v128h128h128v-128v-128v-128v-128v-128v-128v-128h128v-128h-128v-128h-128v-128h-128zM384 384v128h128v-128h-128zM512 512v128h128v-128h-128zM640 640v128v128v128v128v128h128h128v-128v-128v-128v-128h-128v-128h-128z
" />
    <glyph glyph-name="W" unicode="W" horiz-adv-x="1664" 
d="M0 0v128v128v128v128v128v128v128v128v128v128h128h128v-128v-128v-128v-128v-128v-128v-128h128v128h128v128h128v128v128v128v128v128h128h128v-128v-128v-128v-128v-128v-128v-128h128v-128h-128v-128h-128v-128h-128v128v128v128v128h-128v-128h-128v-128h-128v-128
h-128v-128h-128zM1024 384v128h128v-128h-128zM1152 512v128h128v-128h-128zM1280 640v128v128v128v128v128h128h128v-128v-128v-128v-128h-128v-128h-128z" />
    <glyph glyph-name="X" unicode="X" horiz-adv-x="1152" 
d="M0 512v128v128v128v128v128v128h128v-128h128v-128h128v-128h128v-128h128h128h128h128v-128v-128v-128v-128v-128v-128h-128v128h-128v128h-128v128h-128v-128h-128v-128h-128v-128h-128v128h128v128h128v128h128v128h-128h-128h-128h-128zM512 896v128h128v-128h-128z
M640 1024v128h128v-128h-128zM768 1152v128h128v-128h-128z" />
    <glyph glyph-name="Y" unicode="Y" horiz-adv-x="1152" 
d="M0 768v128v128v128v128h128h128v-128v-128v-128v-128v-128h-128v128h-128zM256 512v128h128h128h128h128v-128h-128v-128v-128v-128v-128h-128h-128v128v128v128v128h-128zM768 640v128v128v128v128v128h128h128v-128v-128v-128v-128h-128v-128h-128z" />
    <glyph glyph-name="Z" unicode="Z" 
d="M0 0v128v128v128v128h128v128h128v128h128v128h128v128v128h-128v-128h-128v-128h-128v128h128v128h128v128h128h128h128h128v-128v-128v-128v-128h-128v-128h-128v-128h-128v-128h-128v-128v-128h128v-128h-128h-128h-128h-128zM0 768v128h128v-128h-128zM512 128v128
h128v-128h-128zM640 256v128h128v-128h-128zM768 384v128h128v-128h-128z" />
    <glyph glyph-name="bracketleft" unicode="[" horiz-adv-x="640" 
d="M0 0v128v128v128v128v128v128v128v128v128v128h128h128h128h128v-128h-128v-128h-128v-128h-128v-128v-128v-128v-128v-128v-128v-128h128v-128h128v-128h128v-128h-128h-128h-128h-128v128v128v128z" />
    <glyph glyph-name="backslash" unicode="\" 
d="M0 768v128v128h128v-128h128v-128h128v-128h128v-128h128v-128h128v-128h128v-128v-128h-128v128h-128v128h-128v128h-128v128h-128v128h-128v128h-128z" />
    <glyph glyph-name="bracketright" unicode="]" horiz-adv-x="640" 
d="M0 -256h128v128h128v128h128v128v128v128v128v128v128v128h-128v128h-128v128h-128v128h128h128h128h128v-128v-128v-128v-128v-128v-128v-128v-128v-128v-128v-128v-128v-128h-128h-128h-128h-128v128z" />
    <glyph glyph-name="asciicircum" unicode="^" horiz-adv-x="768" 
d="M0 896v128h128v128h128v128h128v-128h128v-128h128v-128h-128h-128h-128h-128h-128z" />
    <glyph glyph-name="underscore" unicode="_" 
d="M0 0h128h128h128h128h128h128h128v-128v-128h-128h-128h-128h-128h-128h-128h-128v128v128z" />
    <glyph glyph-name="a" unicode="a" 
d="M0 0v128v128v128v128h128v128h128v128h128v128h128h128h128h128v-128v-128v-128v-128v-128v-128v-128h-128h-128h-128h-128h-128h-128h-128zM256 256h128h128h128v128v128v128h-128h-128h-128v-128v-128v-128z" />
    <glyph glyph-name="b" unicode="b" 
d="M0 0v128v128v128v128v128v128v128v128v128v128h128v-128h128v-128h128v-128h128v-128h128v-128h-128h-128h-128v-128v-128v-128h128h128h128v128v128v128h128v-128h128v-128v-128v-128v-128h-128h-128h-128h-128h-128h-128h-128z" />
    <glyph glyph-name="c" unicode="c" 
d="M0 0v128v128v128v128h128v128h128v-128v-128v-128h128h128h128h128h128v-128v-128h-128h-128h-128h-128h-128h-128h-128zM256 640v128h128v128h128h128h128h128v-128v-128h-128h-128h-128h-128h-128z" />
    <glyph glyph-name="d" unicode="d" 
d="M0 0v128v128v128v128h128v128h128v128h128v128h128v128h128v128h128v128h128v-128v-128v-128v-128v-128v-128v-128v-128v-128v-128h-128h-128h-128h-128h-128h-128h-128zM256 256h128h128h128v128v128v128h-128h-128h-128v-128v-128v-128z" />
    <glyph glyph-name="e" unicode="e" 
d="M0 0v128v128v128v128h128v128h128v-128v-128v-128h128h128v128h128v-128h128h128v-128v-128h-128h-128h-128h-128h-128h-128h-128zM256 640v128h128v128h128h128h128h128v-128v-128v-128h-128v128h-128h-128h-128h-128zM640 384v128h128v-128h-128z" />
    <glyph glyph-name="f" unicode="f" horiz-adv-x="896" 
d="M0 768v128h128v128h128v128h128v128h128h128h128v-128v-128h-128h-128v-128h128h128v-128h-128h-128v-128v-128v-128v-128v-128v-128h-128h-128v128v128v128v128v128v128h-128h-128z" />
    <glyph glyph-name="g" unicode="g" 
d="M0 0v128v128v128v128h128v128h128v128h128v128h128h128h128h128v-128v-128v-128v-128v-128v-128v-128v-128h-128v128h-128h-128h-128h-128h-128h-128zM128 -256h128h128h128h128v-128h-128v-128h-128h-128h-128v128v128zM256 256h128h128h128v128v128v128h-128h-128h-128
v-128v-128v-128zM640 -128h128v-128h-128v128z" />
    <glyph glyph-name="h" unicode="h" horiz-adv-x="896" 
d="M0 0v128v128v128v128v128v128v128v128v128v128h128h128v-128v-128v-128h128v-128h128v-128h-128v128h-128v-128v-128v-128v-128v-128v-128h-128h-128zM512 0v128v128v128v128v128h128v-128h128v-128v-128v-128v-128h-128h-128z" />
    <glyph glyph-name="i" unicode="i" horiz-adv-x="384" 
d="M0 0v128v128v128v128v128v128v128h128v-128h128v-128v-128v-128v-128v-128v-128h-128h-128zM0 1024v128v128h128v-128h128v-128v-128h-128v128h-128z" />
    <glyph glyph-name="j" unicode="j" horiz-adv-x="640" 
d="M0 -384h128v-128h-128v128zM128 -256h128v-128h-128v128zM256 0v128v128v128v128v128v128v128h128v-128h128v-128v-128v-128v-128v-128v-128v-128h-128v-128h-128v128v128zM256 1024v128v128h128v-128h128v-128v-128h-128v128h-128z" />
    <glyph glyph-name="k" unicode="k" horiz-adv-x="896" 
d="M0 0v128v128v128v128v128v128v128h128h128v-128v-128h128h128v-128v-128v-128h128v-128h-128v128h-128h-128v-128v-128h-128h-128zM512 640v128h128v-128h-128zM640 0v128h128v-128h-128zM640 768v128h128v-128h-128z" />
    <glyph glyph-name="l" unicode="l" horiz-adv-x="640" 
d="M0 0v128v128v128v128v128v128v128v128v128v128h128h128v-128v-128v-128v-128v-128v-128v-128v-128h128v-128h128v-128h-128h-128h-128h-128z" />
    <glyph glyph-name="m" unicode="m" horiz-adv-x="1408" 
d="M0 0v128v128v128v128v128v128v128h128v-128h128v-128h128v-128h-128v-128v-128v-128v-128h-128h-128zM384 384v128h128v128v128v128h128v-128h128v-128h128v-128h-128v-128v-128v-128v-128h-128h-128v128v128v128h-128zM896 384v128h128v128v128v128h128v-128h128v-128
v-128v-128v-128v-128v-128h-128h-128v128v128v128h-128z" />
    <glyph glyph-name="n" unicode="n" horiz-adv-x="896" 
d="M0 0v128v128v128v128v128v128v128h128v-128h128v-128h128v-128h-128v-128v-128v-128v-128h-128h-128zM384 384v128h128v128v128v128h128v-128h128v-128v-128v-128v-128v-128v-128h-128h-128v128v128v128h-128z" />
    <glyph glyph-name="o" unicode="o" 
d="M0 0v128v128v128v128v128v128v128h128h128h128h128v-128h128v-128h-128h-128h-128v-128v-128v-128h128h128h128v128v128v128h128v-128h128v-128v-128v-128v-128h-128h-128h-128h-128h-128h-128h-128z" />
    <glyph glyph-name="p" unicode="p" 
d="M0 0v128v128v128v128v128v128v128h128h128h128h128v-128h128v-128h-128h-128h-128v-128v-128v-128h128h128h128v128v128v128h128v-128h128v-128v-128v-128v-128h-128h-128h-128h-128v-128v-128h-128v-128h-128v-128h-128v128v128v128v128z" />
    <glyph glyph-name="q" unicode="q" 
d="M0 0v128v128v128v128h128v128h128v128h128v128h128h128h128h128v-128v-128v-128v-128v-128v-128v-128v-128v-128v-128v-128h-128v128h-128v128h-128v128v128h-128h-128h-128h-128zM256 256h128h128h128v128v128v128h-128h-128h-128v-128v-128v-128z" />
    <glyph glyph-name="r" unicode="r" horiz-adv-x="768" 
d="M0 0v128v128v128v128v128v128v128h128v-128h128v-128h128v-128h-128v-128v-128v-128v-128h-128h-128zM384 640v128h128v-128h-128zM512 768v128h128v-128h-128z" />
    <glyph glyph-name="s" unicode="s" 
d="M0 256v128v128v128h128v-128h128h128h128h128h128h128v-128v-128v-128h-128v128h-128h-128h-128h-128h-128h-128zM128 640v128h128v-128h-128zM256 768v128h128v-128h-128zM512 0h128v-128h-128v128zM640 0v128h128v-128h-128z" />
    <glyph glyph-name="t" unicode="t" horiz-adv-x="896" 
d="M0 768v128h128v128h128v128h128v128h128v-128v-128v-128h128h128v-128h-128h-128v-128v-128v-128v-128v-128v-128h-128h-128v128v128v128v128v128v128h-128h-128z" />
    <glyph glyph-name="u" unicode="u" 
d="M0 384v128v128v128v128h128h128v-128v-128v-128v-128v-128h-128v128h-128zM256 128v128h128h128h128v128v128v128v128v128h128h128v-128v-128v-128v-128v-128v-128v-128h-128h-128h-128h-128v128h-128z" />
    <glyph glyph-name="v" unicode="v" 
d="M0 0v128v128v128v128v128v128v128h128h128v-128v-128v-128v-128h128v-128h-128v-128h-128v-128h-128zM384 384v128h128v-128h-128zM512 512v128h128v-128h-128zM640 640v128h128v-128h-128zM768 768v128h128v-128h-128z" />
    <glyph glyph-name="w" unicode="w" horiz-adv-x="1536" 
d="M0 0v128v128v128v128v128v128v128h128h128v-128v-128v-128v-128h128v128h128v128v128v128h128h128v-128v-128v-128v-128h128v-128h-128v-128h-128v-128h-128v128v128v128h-128v-128h-128v-128h-128v-128h-128zM896 384v128h128v-128h-128zM1024 512v128h128v-128h-128z
M1152 640v128h128v-128h-128zM1280 768v128h128v-128h-128z" />
    <glyph glyph-name="x" unicode="x" horiz-adv-x="896" 
d="M0 0v128h128v128h128v128h-128h-128v128v128v128v128h128v-128h128v-128h128h128v-128h128h128v-128v-128v-128v-128h-128v128h-128v128h-128h-128v-128h-128v-128h-128zM512 640v128h128v-128h-128zM640 768v128h128v-128h-128z" />
    <glyph glyph-name="y" unicode="y" 
d="M0 384v128v128v128v128h128h128v-128v-128v-128v-128v-128h-128v128h-128zM256 128v128h128h128h128v128v128v128v128v128h128h128v-128v-128v-128v-128v-128v-128v-128v-128h-128v-128h-128v128v128h-128h-128v128h-128zM384 -384h128v-128h-128v128zM512 -256h128v-128
h-128v128z" />
    <glyph glyph-name="z" unicode="z" 
d="M0 128v128v128v128h128h128h128h128h128h128v128h128v-128v-128v-128h-128h-128h-128h-128h-128h-128v-128h-128zM128 0v128h128v-128h-128zM256 0h128v-128h-128v128zM512 768v128h128v-128h-128zM640 640v128h128v-128h-128z" />
    <glyph glyph-name="braceleft" unicode="{" horiz-adv-x="640" 
d="M0 384v128h128v128h128v128h-128v128v128h128v128h128v-128v-128v-128v-128v-128v-128v-128v-128v-128v-128v-128h-128v128h-128v128v128h128v128h-128v128h-128zM384 -256h128v-128h-128v128zM384 1152v128h128v-128h-128z" />
    <glyph glyph-name="bar" unicode="|" horiz-adv-x="384" 
d="M0 0v128v128v128v128v128v128v128h128h128v-128v-128v-128v-128v-128v-128v-128h-128h-128z" />
    <glyph glyph-name="braceright" unicode="}" horiz-adv-x="640" 
d="M0 -256h128v-128h-128v128zM0 1152v128h128v-128h-128zM128 0v128v128v128v128v128v128v128v128v128h128v-128h128v-128v-128h-128v-128h128v-128h128v-128h-128v-128h-128v-128h128v-128v-128h-128v-128h-128v128v128z" />
    <glyph glyph-name="asciitilde" unicode="~" 
d="M0 256v128v128h128v128h128h128v-128h128v-128h128h128v128h128v-128v-128h-128v-128h-128h-128v128h-128v128h-128h-128v-128h-128z" />
    <glyph glyph-name="uni00A0" unicode="&#xa0;" horiz-adv-x="640" 
 />
    <glyph glyph-name="uni00AD" unicode="&#xad;" 
d="M0 256v128v128v128h128h128h128h128h128h128h128v-128v-128v-128h-128h-128h-128h-128h-128h-128h-128z" />
    <glyph glyph-name="uni2000" unicode="&#x2000;" horiz-adv-x="682" 
 />
    <glyph glyph-name="uni2001" unicode="&#x2001;" horiz-adv-x="1365" 
 />
    <glyph glyph-name="uni2002" unicode="&#x2002;" horiz-adv-x="682" 
 />
    <glyph glyph-name="uni2003" unicode="&#x2003;" horiz-adv-x="1365" 
 />
    <glyph glyph-name="uni2004" unicode="&#x2004;" horiz-adv-x="455" 
 />
    <glyph glyph-name="uni2005" unicode="&#x2005;" horiz-adv-x="341" 
 />
    <glyph glyph-name="uni2006" unicode="&#x2006;" horiz-adv-x="227" 
 />
    <glyph glyph-name="uni2007" unicode="&#x2007;" horiz-adv-x="227" 
 />
    <glyph glyph-name="uni2008" unicode="&#x2008;" horiz-adv-x="170" 
 />
    <glyph glyph-name="uni2009" unicode="&#x2009;" horiz-adv-x="273" 
 />
    <glyph glyph-name="uni200A" unicode="&#x200a;" horiz-adv-x="75" 
 />
    <glyph glyph-name="uni2010" unicode="&#x2010;" 
d="M0 256v128v128v128h128h128h128h128h128h128h128v-128v-128v-128h-128h-128h-128h-128h-128h-128h-128z" />
    <glyph glyph-name="uni2011" unicode="&#x2011;" 
d="M0 256v128v128v128h128h128h128h128h128h128h128v-128v-128v-128h-128h-128h-128h-128h-128h-128h-128z" />
    <glyph glyph-name="figuredash" unicode="&#x2012;" 
d="M0 256v128v128v128h128h128h128h128h128h128h128v-128v-128v-128h-128h-128h-128h-128h-128h-128h-128z" />
    <glyph glyph-name="endash" unicode="&#x2013;" horiz-adv-x="1152" 
d="M0 256v128v128v128h146h147h146h146h146h147h146v-128v-128v-128h-146h-147h-146h-146h-146h-147h-146z" />
    <glyph glyph-name="emdash" unicode="&#x2014;" horiz-adv-x="2176" 
d="M0 256v128v128v128h293h292h293h292h293h292h293v-128v-128v-128h-293h-292h-293h-292h-293h-292h-293z" />
    <glyph glyph-name="uni202F" unicode="&#x202f;" horiz-adv-x="273" 
 />
    <glyph glyph-name="uni205F" unicode="&#x205f;" horiz-adv-x="341" 
 />
    <glyph glyph-name="uni25FC" unicode="&#x25fc;" horiz-adv-x="900" 
d="M0 0v900h900v-900h-900z" />
  </font>
</defs>
</svg>
